<svg width="1024" height="753" viewBox="0 0 1024 753" fill="none" xmlns="http://www.w3.org/2000/svg">
<g clip-path="url(#clip0_122_130)">
<rect width="1024" height="753" fill="#121214"/>
<g opacity="0.2" filter="url(#filter0_f_122_130)">
<ellipse cx="511.5" cy="56" rx="670.5" ry="350" fill="#338AF3"/>
</g>
<path d="M32.0349 292C33.5302 292 34.6622 292.63 35.4308 293.891C36.2134 295.138 36.6047 296.953 36.6047 299.336C36.6047 301.719 36.2134 303.541 35.4308 304.802C34.6622 306.063 33.5302 306.693 32.0349 306.693C30.5536 306.693 29.4216 306.063 28.639 304.802C27.8564 303.541 27.4651 301.719 27.4651 299.336C27.4651 296.967 27.8564 295.152 28.639 293.891C29.4216 292.63 30.5536 292 32.0349 292ZM28.9534 299.336C28.9534 301.026 29.1072 302.35 29.4146 303.306L34.0683 294.099C33.5791 293.448 32.9013 293.122 32.0349 293.122C31.0706 293.122 30.316 293.635 29.771 294.66C29.2259 295.672 28.9534 297.23 28.9534 299.336ZM32.0349 305.55C33.0131 305.55 33.7748 305.044 34.3198 304.033C34.8648 303.008 35.1373 301.442 35.1373 299.336C35.1373 297.549 34.9627 296.163 34.6133 295.18L29.9596 304.469C30.4627 305.19 31.1545 305.55 32.0349 305.55Z" fill="url(#paint0_linear_122_130)" fill-opacity="0.6"/>
<path d="M33.2926 329.135H36.3741V330.236H28.3874V329.135H31.9511V317.455L28.5551 319.471L27.9682 318.536L32.1607 315.959H33.2926V329.135Z" fill="url(#paint1_linear_122_130)" fill-opacity="0.6"/>
<path d="M32.0349 339.502C33.5302 339.502 34.6622 340.133 35.4308 341.393C36.2134 342.64 36.6047 344.455 36.6047 346.838C36.6047 349.221 36.2134 351.043 35.4308 352.304C34.6622 353.565 33.5302 354.195 32.0349 354.195C30.5536 354.195 29.4216 353.565 28.639 352.304C27.8564 351.043 27.4651 349.221 27.4651 346.838C27.4651 344.469 27.8564 342.654 28.639 341.393C29.4216 340.133 30.5536 339.502 32.0349 339.502ZM28.9534 346.838C28.9534 348.529 29.1072 349.852 29.4146 350.808L34.0683 341.601C33.5791 340.95 32.9013 340.624 32.0349 340.624C31.0706 340.624 30.316 341.137 29.771 342.162C29.2259 343.174 28.9534 344.732 28.9534 346.838ZM32.0349 353.052C33.0131 353.052 33.7748 352.546 34.3198 351.535C34.8648 350.51 35.1373 348.944 35.1373 346.838C35.1373 345.051 34.9627 343.665 34.6133 342.682L29.9596 351.971C30.4627 352.692 31.1545 353.052 32.0349 353.052Z" fill="url(#paint2_linear_122_130)" fill-opacity="0.6"/>
<path d="M33.2926 376.637H36.3741V377.738H28.3874V376.637H31.9511V364.957L28.5551 366.973L27.9682 366.038L32.1607 363.461H33.2926V376.637Z" fill="url(#paint3_linear_122_130)" fill-opacity="0.6"/>
<path d="M33.2926 400.388H36.3741V401.489H28.3874V400.388H31.9511V388.708L28.5551 390.724L27.9682 389.789L32.1607 387.212H33.2926V400.388Z" fill="url(#paint4_linear_122_130)" fill-opacity="0.6"/>
<path d="M32.0349 410.755C33.5302 410.755 34.6622 411.386 35.4308 412.646C36.2134 413.893 36.6047 415.708 36.6047 418.091C36.6047 420.474 36.2134 422.296 35.4308 423.557C34.6622 424.818 33.5302 425.448 32.0349 425.448C30.5536 425.448 29.4216 424.818 28.639 423.557C27.8564 422.296 27.4651 420.474 27.4651 418.091C27.4651 415.722 27.8564 413.907 28.639 412.646C29.4216 411.386 30.5536 410.755 32.0349 410.755ZM28.9534 418.091C28.9534 419.782 29.1072 421.105 29.4146 422.061L34.0683 412.854C33.5791 412.203 32.9013 411.878 32.0349 411.878C31.0706 411.878 30.316 412.39 29.771 413.415C29.2259 414.427 28.9534 415.985 28.9534 418.091ZM32.0349 424.305C33.0131 424.305 33.7748 423.8 34.3198 422.788C34.8648 421.763 35.1373 420.197 35.1373 418.091C35.1373 416.304 34.9627 414.919 34.6133 413.935L29.9596 423.225C30.4627 423.945 31.1545 424.305 32.0349 424.305Z" fill="url(#paint5_linear_122_130)" fill-opacity="0.6"/>
<path d="M33.2926 447.89H36.3741V448.992H28.3874V447.89H31.9511V436.21L28.5551 438.226L27.9682 437.291L32.1607 434.714H33.2926V447.89Z" fill="url(#paint6_linear_122_130)" fill-opacity="0.6"/>
<path d="M32.0349 458.257C33.5302 458.257 34.6622 458.888 35.4308 460.149C36.2134 461.396 36.6047 463.211 36.6047 465.594C36.6047 467.977 36.2134 469.798 35.4308 471.059C34.6622 472.32 33.5302 472.95 32.0349 472.95C30.5536 472.95 29.4216 472.32 28.639 471.059C27.8564 469.798 27.4651 467.977 27.4651 465.594C27.4651 463.224 27.8564 461.409 28.639 460.149C29.4216 458.888 30.5536 458.257 32.0349 458.257ZM28.9534 465.594C28.9534 467.284 29.1072 468.607 29.4146 469.563L34.0683 460.356C33.5791 459.705 32.9013 459.38 32.0349 459.38C31.0706 459.38 30.316 459.892 29.771 460.918C29.2259 461.929 28.9534 463.488 28.9534 465.594ZM32.0349 471.807C33.0131 471.807 33.7748 471.302 34.3198 470.29C34.8648 469.265 35.1373 467.699 35.1373 465.594C35.1373 463.806 34.9627 462.421 34.6133 461.437L29.9596 470.727C30.4627 471.447 31.1545 471.807 32.0349 471.807Z" fill="url(#paint7_linear_122_130)" fill-opacity="0.6"/>
<path d="M32.0349 482.008C33.5302 482.008 34.6622 482.639 35.4308 483.9C36.2134 485.147 36.6047 486.962 36.6047 489.345C36.6047 491.728 36.2134 493.549 35.4308 494.81C34.6622 496.071 33.5302 496.701 32.0349 496.701C30.5536 496.701 29.4216 496.071 28.639 494.81C27.8564 493.549 27.4651 491.728 27.4651 489.345C27.4651 486.975 27.8564 485.16 28.639 483.9C29.4216 482.639 30.5536 482.008 32.0349 482.008ZM28.9534 489.345C28.9534 491.035 29.1072 492.358 29.4146 493.314L34.0683 484.107C33.5791 483.456 32.9013 483.131 32.0349 483.131C31.0706 483.131 30.316 483.643 29.771 484.669C29.2259 485.68 28.9534 487.239 28.9534 489.345ZM32.0349 495.558C33.0131 495.558 33.7748 495.053 34.3198 494.041C34.8648 493.016 35.1373 491.451 35.1373 489.345C35.1373 487.557 34.9627 486.172 34.6133 485.188L29.9596 494.478C30.4627 495.198 31.1545 495.558 32.0349 495.558Z" fill="url(#paint8_linear_122_130)" fill-opacity="0.6"/>
<path d="M33.2926 519.143H36.3741V520.245H28.3874V519.143H31.9511V507.464L28.5551 509.48L27.9682 508.544L32.1607 505.967H33.2926V519.143Z" fill="url(#paint9_linear_122_130)" fill-opacity="0.6"/>
<path d="M32.0349 529.511C33.5302 529.511 34.6622 530.141 35.4308 531.402C36.2134 532.649 36.6047 534.464 36.6047 536.847C36.6047 539.23 36.2134 541.052 35.4308 542.312C34.6622 543.573 33.5302 544.204 32.0349 544.204C30.5536 544.204 29.4216 543.573 28.639 542.312C27.8564 541.052 27.4651 539.23 27.4651 536.847C27.4651 534.478 27.8564 532.663 28.639 531.402C29.4216 530.141 30.5536 529.511 32.0349 529.511ZM28.9534 536.847C28.9534 538.537 29.1072 539.86 29.4146 540.816L34.0683 531.61C33.5791 530.958 32.9013 530.633 32.0349 530.633C31.0706 530.633 30.316 531.145 29.771 532.171C29.2259 533.182 28.9534 534.741 28.9534 536.847ZM32.0349 543.061C33.0131 543.061 33.7748 542.555 34.3198 541.543C34.8648 540.518 35.1373 538.953 35.1373 536.847C35.1373 535.059 34.9627 533.674 34.6133 532.69L29.9596 541.98C30.4627 542.7 31.1545 543.061 32.0349 543.061Z" fill="url(#paint10_linear_122_130)" fill-opacity="0.6"/>
<path d="M33.2926 566.645H36.3741V567.747H28.3874V566.645H31.9511V554.966L28.5551 556.982L27.9682 556.046L32.1607 553.469H33.2926V566.645Z" fill="url(#paint11_linear_122_130)" fill-opacity="0.6"/>
<path d="M33.2926 590.396H36.3741V591.498H28.3874V590.396H31.9511V578.717L28.5551 580.733L27.9682 579.798L32.1607 577.221H33.2926V590.396Z" fill="url(#paint12_linear_122_130)" fill-opacity="0.6"/>
<path d="M70.9651 339.502C72.4604 339.502 73.5924 340.133 74.361 341.393C75.1436 342.64 75.5349 344.455 75.5349 346.838C75.5349 349.221 75.1436 351.043 74.361 352.304C73.5924 353.565 72.4604 354.195 70.9651 354.195C69.4838 354.195 68.3518 353.565 67.5692 352.304C66.7866 351.043 66.3953 349.221 66.3953 346.838C66.3953 344.469 66.7866 342.654 67.5692 341.393C68.3518 340.133 69.4838 339.502 70.9651 339.502ZM67.8836 346.838C67.8836 348.529 68.0374 349.852 68.3448 350.808L72.9985 341.601C72.5093 340.95 71.8315 340.624 70.9651 340.624C70.0008 340.624 69.2462 341.137 68.7012 342.162C68.1561 343.174 67.8836 344.732 67.8836 346.838ZM70.9651 353.052C71.9433 353.052 72.705 352.546 73.25 351.535C73.795 350.51 74.0675 348.944 74.0675 346.838C74.0675 345.051 73.8928 343.665 73.5435 342.682L68.8898 351.971C69.3929 352.692 70.0847 353.052 70.9651 353.052Z" fill="url(#paint13_linear_122_130)" fill-opacity="0.6"/>
<path d="M72.2228 376.637H75.3043V377.738H67.3176V376.637H70.8812V364.957L67.4853 366.973L66.8984 366.038L71.0909 363.461H72.2228V376.637Z" fill="url(#paint14_linear_122_130)" fill-opacity="0.6"/>
<path d="M70.9651 387.004C72.4604 387.004 73.5924 387.635 74.361 388.895C75.1436 390.142 75.5349 391.957 75.5349 394.34C75.5349 396.723 75.1436 398.545 74.361 399.806C73.5924 401.067 72.4604 401.697 70.9651 401.697C69.4838 401.697 68.3518 401.067 67.5692 399.806C66.7866 398.545 66.3953 396.723 66.3953 394.34C66.3953 391.971 66.7866 390.156 67.5692 388.895C68.3518 387.635 69.4838 387.004 70.9651 387.004ZM67.8836 394.34C67.8836 396.031 68.0374 397.354 68.3448 398.31L72.9985 389.103C72.5093 388.452 71.8315 388.126 70.9651 388.126C70.0008 388.126 69.2462 388.639 68.7012 389.664C68.1561 390.676 67.8836 392.234 67.8836 394.34ZM70.9651 400.554C71.9433 400.554 72.705 400.049 73.25 399.037C73.795 398.012 74.0675 396.446 74.0675 394.34C74.0675 392.553 73.8928 391.168 73.5435 390.184L68.8898 399.474C69.3929 400.194 70.0847 400.554 70.9651 400.554Z" fill="url(#paint15_linear_122_130)" fill-opacity="0.6"/>
<path d="M70.9651 410.755C72.4604 410.755 73.5924 411.386 74.361 412.646C75.1436 413.893 75.5349 415.708 75.5349 418.091C75.5349 420.474 75.1436 422.296 74.361 423.557C73.5924 424.818 72.4604 425.448 70.9651 425.448C69.4838 425.448 68.3518 424.818 67.5692 423.557C66.7866 422.296 66.3953 420.474 66.3953 418.091C66.3953 415.722 66.7866 413.907 67.5692 412.646C68.3518 411.386 69.4838 410.755 70.9651 410.755ZM67.8836 418.091C67.8836 419.782 68.0374 421.105 68.3448 422.061L72.9985 412.854C72.5093 412.203 71.8315 411.878 70.9651 411.878C70.0008 411.878 69.2462 412.39 68.7012 413.415C68.1561 414.427 67.8836 415.985 67.8836 418.091ZM70.9651 424.305C71.9433 424.305 72.705 423.8 73.25 422.788C73.795 421.763 74.0675 420.197 74.0675 418.091C74.0675 416.304 73.8928 414.919 73.5435 413.935L68.8898 423.225C69.3929 423.945 70.0847 424.305 70.9651 424.305Z" fill="url(#paint16_linear_122_130)" fill-opacity="0.6"/>
<path d="M72.2228 447.89H75.3043V448.992H67.3176V447.89H70.8812V436.21L67.4853 438.226L66.8984 437.291L71.0909 434.714H72.2228V447.89Z" fill="url(#paint17_linear_122_130)" fill-opacity="0.6"/>
<path d="M70.9651 458.257C72.4604 458.257 73.5924 458.888 74.361 460.149C75.1436 461.396 75.5349 463.211 75.5349 465.594C75.5349 467.977 75.1436 469.798 74.361 471.059C73.5924 472.32 72.4604 472.95 70.9651 472.95C69.4838 472.95 68.3518 472.32 67.5692 471.059C66.7866 469.798 66.3953 467.977 66.3953 465.594C66.3953 463.224 66.7866 461.409 67.5692 460.149C68.3518 458.888 69.4838 458.257 70.9651 458.257ZM67.8836 465.594C67.8836 467.284 68.0374 468.607 68.3448 469.563L72.9985 460.356C72.5093 459.705 71.8315 459.38 70.9651 459.38C70.0008 459.38 69.2462 459.892 68.7012 460.918C68.1561 461.929 67.8836 463.488 67.8836 465.594ZM70.9651 471.807C71.9433 471.807 72.705 471.302 73.25 470.29C73.795 469.265 74.0675 467.699 74.0675 465.594C74.0675 463.806 73.8928 462.421 73.5435 461.437L68.8898 470.727C69.3929 471.447 70.0847 471.807 70.9651 471.807Z" fill="url(#paint18_linear_122_130)" fill-opacity="0.6"/>
<path d="M72.2228 495.392H75.3043V496.494H67.3176V495.392H70.8812V483.713L67.4853 485.728L66.8984 484.793L71.0909 482.216H72.2228V495.392Z" fill="url(#paint19_linear_122_130)" fill-opacity="0.6"/>
<path d="M70.9651 505.76C72.4604 505.76 73.5924 506.39 74.361 507.651C75.1436 508.898 75.5349 510.713 75.5349 513.096C75.5349 515.479 75.1436 517.301 74.361 518.561C73.5924 519.822 72.4604 520.453 70.9651 520.453C69.4838 520.453 68.3518 519.822 67.5692 518.561C66.7866 517.301 66.3953 515.479 66.3953 513.096C66.3953 510.726 66.7866 508.911 67.5692 507.651C68.3518 506.39 69.4838 505.76 70.9651 505.76ZM67.8836 513.096C67.8836 514.786 68.0374 516.109 68.3448 517.065L72.9985 507.859C72.5093 507.207 71.8315 506.882 70.9651 506.882C70.0008 506.882 69.2462 507.394 68.7012 508.42C68.1561 509.431 67.8836 510.99 67.8836 513.096ZM70.9651 519.31C71.9433 519.31 72.705 518.804 73.25 517.792C73.795 516.767 74.0675 515.202 74.0675 513.096C74.0675 511.308 73.8928 509.923 73.5435 508.939L68.8898 518.229C69.3929 518.949 70.0847 519.31 70.9651 519.31Z" fill="url(#paint20_linear_122_130)" fill-opacity="0.6"/>
<path d="M70.9651 529.511C72.4604 529.511 73.5924 530.141 74.361 531.402C75.1436 532.649 75.5349 534.464 75.5349 536.847C75.5349 539.23 75.1436 541.052 74.361 542.312C73.5924 543.573 72.4604 544.204 70.9651 544.204C69.4838 544.204 68.3518 543.573 67.5692 542.312C66.7866 541.052 66.3953 539.23 66.3953 536.847C66.3953 534.478 66.7866 532.663 67.5692 531.402C68.3518 530.141 69.4838 529.511 70.9651 529.511ZM67.8836 536.847C67.8836 538.537 68.0374 539.86 68.3448 540.816L72.9985 531.61C72.5093 530.958 71.8315 530.633 70.9651 530.633C70.0008 530.633 69.2462 531.145 68.7012 532.171C68.1561 533.182 67.8836 534.741 67.8836 536.847ZM70.9651 543.061C71.9433 543.061 72.705 542.555 73.25 541.543C73.795 540.518 74.0675 538.953 74.0675 536.847C74.0675 535.059 73.8928 533.674 73.5435 532.69L68.8898 541.98C69.3929 542.7 70.0847 543.061 70.9651 543.061Z" fill="url(#paint21_linear_122_130)" fill-opacity="0.6"/>
<path d="M72.2228 566.645H75.3043V567.747H67.3176V566.645H70.8812V554.966L67.4853 556.982L66.8984 556.046L71.0909 553.469H72.2228V566.645Z" fill="url(#paint22_linear_122_130)" fill-opacity="0.6"/>
<path d="M70.9651 577.013C72.4604 577.013 73.5924 577.643 74.361 578.904C75.1436 580.151 75.5349 581.966 75.5349 584.349C75.5349 586.732 75.1436 588.554 74.361 589.815C73.5924 591.075 72.4604 591.706 70.9651 591.706C69.4838 591.706 68.3518 591.075 67.5692 589.815C66.7866 588.554 66.3953 586.732 66.3953 584.349C66.3953 581.98 66.7866 580.165 67.5692 578.904C68.3518 577.643 69.4838 577.013 70.9651 577.013ZM67.8836 584.349C67.8836 586.039 68.0374 587.362 68.3448 588.318L72.9985 579.112C72.5093 578.461 71.8315 578.135 70.9651 578.135C70.0008 578.135 69.2462 578.648 68.7012 579.673C68.1561 580.684 67.8836 582.243 67.8836 584.349ZM70.9651 590.563C71.9433 590.563 72.705 590.057 73.25 589.046C73.795 588.02 74.0675 586.455 74.0675 584.349C74.0675 582.562 73.8928 581.176 73.5435 580.192L68.8898 589.482C69.3929 590.202 70.0847 590.563 70.9651 590.563Z" fill="url(#paint23_linear_122_130)" fill-opacity="0.6"/>
<path d="M72.2228 614.147H75.3043V615.249H67.3176V614.147H70.8812V602.468L67.4853 604.484L66.8984 603.549L71.0909 600.972H72.2228V614.147Z" fill="url(#paint24_linear_122_130)" fill-opacity="0.6"/>
<path d="M72.2228 637.899H75.3043V639H67.3176V637.899H70.8812V626.219L67.4853 628.235L66.8984 627.3L71.0909 624.723H72.2228V637.899Z" fill="url(#paint25_linear_122_130)" fill-opacity="0.6"/>
<path d="M12.5698 363.253C14.0651 363.253 15.1971 363.884 15.9657 365.144C16.7483 366.391 17.1396 368.206 17.1396 370.589C17.1396 372.972 16.7483 374.794 15.9657 376.055C15.1971 377.316 14.0651 377.946 12.5698 377.946C11.0885 377.946 9.95649 377.316 9.1739 376.055C8.3913 374.794 8 372.972 8 370.589C8 368.22 8.3913 366.405 9.1739 365.144C9.95649 363.884 11.0885 363.253 12.5698 363.253ZM9.48833 370.589C9.48833 372.28 9.64206 373.603 9.9495 374.559L14.6032 365.352C14.114 364.701 13.4363 364.375 12.5698 364.375C11.6055 364.375 10.8509 364.888 10.3059 365.913C9.76084 366.925 9.48833 368.483 9.48833 370.589ZM12.5698 376.803C13.5481 376.803 14.3097 376.297 14.8547 375.286C15.3997 374.261 15.6722 372.695 15.6722 370.589C15.6722 368.802 15.4976 367.417 15.1482 366.433L10.4945 375.722C10.9976 376.443 11.6894 376.803 12.5698 376.803Z" fill="url(#paint26_linear_122_130)" fill-opacity="0.6"/>
<path d="M12.5698 387.004C14.0651 387.004 15.1971 387.635 15.9657 388.895C16.7483 390.142 17.1396 391.957 17.1396 394.34C17.1396 396.723 16.7483 398.545 15.9657 399.806C15.1971 401.067 14.0651 401.697 12.5698 401.697C11.0885 401.697 9.95649 401.067 9.1739 399.806C8.3913 398.545 8 396.723 8 394.34C8 391.971 8.3913 390.156 9.1739 388.895C9.95649 387.635 11.0885 387.004 12.5698 387.004ZM9.48833 394.34C9.48833 396.031 9.64206 397.354 9.9495 398.31L14.6032 389.103C14.114 388.452 13.4363 388.126 12.5698 388.126C11.6055 388.126 10.8509 388.639 10.3059 389.664C9.76084 390.676 9.48833 392.234 9.48833 394.34ZM12.5698 400.554C13.5481 400.554 14.3097 400.049 14.8547 399.037C15.3997 398.012 15.6722 396.446 15.6722 394.34C15.6722 392.553 15.4976 391.168 15.1482 390.184L10.4945 399.474C10.9976 400.194 11.6894 400.554 12.5698 400.554Z" fill="url(#paint27_linear_122_130)" fill-opacity="0.6"/>
<path d="M13.8276 424.139H16.909V425.24H8.92235V424.139H12.486V412.459L9.09005 414.475L8.5031 413.54L12.6956 410.963H13.8276V424.139Z" fill="url(#paint28_linear_122_130)" fill-opacity="0.6"/>
<path d="M12.5698 434.506C14.0651 434.506 15.1971 435.137 15.9657 436.398C16.7483 437.644 17.1396 439.459 17.1396 441.842C17.1396 444.225 16.7483 446.047 15.9657 447.308C15.1971 448.569 14.0651 449.199 12.5698 449.199C11.0885 449.199 9.95649 448.569 9.1739 447.308C8.3913 446.047 8 444.225 8 441.842C8 439.473 8.3913 437.658 9.1739 436.398C9.95649 435.137 11.0885 434.506 12.5698 434.506ZM9.48833 441.842C9.48833 443.533 9.64206 444.856 9.9495 445.812L14.6032 436.605C14.114 435.954 13.4363 435.629 12.5698 435.629C11.6055 435.629 10.8509 436.141 10.3059 437.166C9.76084 438.178 9.48833 439.737 9.48833 441.842ZM12.5698 448.056C13.5481 448.056 14.3097 447.551 14.8547 446.539C15.3997 445.514 15.6722 443.948 15.6722 441.842C15.6722 440.055 15.4976 438.67 15.1482 437.686L10.4945 446.976C10.9976 447.696 11.6894 448.056 12.5698 448.056Z" fill="url(#paint29_linear_122_130)" fill-opacity="0.6"/>
<path d="M13.8276 471.641H16.909V472.743H8.92235V471.641H12.486V459.962L9.09005 461.977L8.5031 461.042L12.6956 458.465H13.8276V471.641Z" fill="url(#paint30_linear_122_130)" fill-opacity="0.6"/>
<path d="M13.8276 495.392H16.909V496.494H8.92235V495.392H12.486V483.713L9.09005 485.728L8.5031 484.793L12.6956 482.216H13.8276V495.392Z" fill="url(#paint31_linear_122_130)" fill-opacity="0.6"/>
<path d="M52.7577 329.135H55.8392V330.236H47.8525V329.135H51.4162V317.455L48.0202 319.471L47.4333 318.536L51.6258 315.959H52.7577V329.135Z" fill="url(#paint32_linear_122_130)" fill-opacity="0.6"/>
<path d="M51.5 339.502C52.9953 339.502 54.1273 340.133 54.8959 341.393C55.6785 342.64 56.0698 344.455 56.0698 346.838C56.0698 349.221 55.6785 351.043 54.8959 352.304C54.1273 353.565 52.9953 354.195 51.5 354.195C50.0187 354.195 48.8867 353.565 48.1041 352.304C47.3215 351.043 46.9302 349.221 46.9302 346.838C46.9302 344.469 47.3215 342.654 48.1041 341.393C48.8867 340.133 50.0187 339.502 51.5 339.502ZM48.4185 346.838C48.4185 348.529 48.5723 349.852 48.8797 350.808L53.5334 341.601C53.0442 340.95 52.3664 340.624 51.5 340.624C50.5357 340.624 49.7811 341.137 49.2361 342.162C48.691 343.174 48.4185 344.732 48.4185 346.838ZM51.5 353.052C52.4782 353.052 53.2399 352.546 53.7849 351.535C54.3299 350.51 54.6024 348.944 54.6024 346.838C54.6024 345.051 54.4277 343.665 54.0784 342.682L49.4247 351.971C49.9278 352.692 50.6196 353.052 51.5 353.052Z" fill="url(#paint33_linear_122_130)" fill-opacity="0.6"/>
<path d="M52.7577 376.637H55.8392V377.738H47.8525V376.637H51.4162V364.957L48.0202 366.973L47.4333 366.038L51.6258 363.461H52.7577V376.637Z" fill="url(#paint34_linear_122_130)" fill-opacity="0.6"/>
<path d="M52.7577 400.388H55.8392V401.489H47.8525V400.388H51.4162V388.708L48.0202 390.724L47.4333 389.789L51.6258 387.212H52.7577V400.388Z" fill="url(#paint35_linear_122_130)" fill-opacity="0.6"/>
<path d="M51.5 410.755C52.9953 410.755 54.1273 411.386 54.8959 412.646C55.6785 413.893 56.0698 415.708 56.0698 418.091C56.0698 420.474 55.6785 422.296 54.8959 423.557C54.1273 424.818 52.9953 425.448 51.5 425.448C50.0187 425.448 48.8867 424.818 48.1041 423.557C47.3215 422.296 46.9302 420.474 46.9302 418.091C46.9302 415.722 47.3215 413.907 48.1041 412.646C48.8867 411.386 50.0187 410.755 51.5 410.755ZM48.4185 418.091C48.4185 419.782 48.5723 421.105 48.8797 422.061L53.5334 412.854C53.0442 412.203 52.3664 411.878 51.5 411.878C50.5357 411.878 49.7811 412.39 49.2361 413.415C48.691 414.427 48.4185 415.985 48.4185 418.091ZM51.5 424.305C52.4782 424.305 53.2399 423.8 53.7849 422.788C54.3299 421.763 54.6024 420.197 54.6024 418.091C54.6024 416.304 54.4277 414.919 54.0784 413.935L49.4247 423.225C49.9278 423.945 50.6196 424.305 51.5 424.305Z" fill="url(#paint36_linear_122_130)" fill-opacity="0.6"/>
<path d="M52.7577 447.89H55.8392V448.992H47.8525V447.89H51.4162V436.21L48.0202 438.226L47.4333 437.291L51.6258 434.714H52.7577V447.89Z" fill="url(#paint37_linear_122_130)" fill-opacity="0.6"/>
<path d="M52.7577 471.641H55.8392V472.743H47.8525V471.641H51.4162V459.962L48.0202 461.977L47.4333 461.042L51.6258 458.465H52.7577V471.641Z" fill="url(#paint38_linear_122_130)" fill-opacity="0.6"/>
<path d="M51.5 482.008C52.9953 482.008 54.1273 482.639 54.8959 483.9C55.6785 485.147 56.0698 486.962 56.0698 489.345C56.0698 491.728 55.6785 493.549 54.8959 494.81C54.1273 496.071 52.9953 496.701 51.5 496.701C50.0187 496.701 48.8867 496.071 48.1041 494.81C47.3215 493.549 46.9302 491.728 46.9302 489.345C46.9302 486.975 47.3215 485.16 48.1041 483.9C48.8867 482.639 50.0187 482.008 51.5 482.008ZM48.4185 489.345C48.4185 491.035 48.5723 492.358 48.8797 493.314L53.5334 484.107C53.0442 483.456 52.3664 483.131 51.5 483.131C50.5357 483.131 49.7811 483.643 49.2361 484.669C48.691 485.68 48.4185 487.239 48.4185 489.345ZM51.5 495.558C52.4782 495.558 53.2399 495.053 53.7849 494.041C54.3299 493.016 54.6024 491.451 54.6024 489.345C54.6024 487.557 54.4277 486.172 54.0784 485.188L49.4247 494.478C49.9278 495.198 50.6196 495.558 51.5 495.558Z" fill="url(#paint39_linear_122_130)" fill-opacity="0.6"/>
<path d="M52.7577 519.143H55.8392V520.245H47.8525V519.143H51.4162V507.464L48.0202 509.48L47.4333 508.544L51.6258 505.967H52.7577V519.143Z" fill="url(#paint40_linear_122_130)" fill-opacity="0.6"/>
<path d="M51.5 529.511C52.9953 529.511 54.1273 530.141 54.8959 531.402C55.6785 532.649 56.0698 534.464 56.0698 536.847C56.0698 539.23 55.6785 541.052 54.8959 542.312C54.1273 543.573 52.9953 544.204 51.5 544.204C50.0187 544.204 48.8867 543.573 48.1041 542.312C47.3215 541.052 46.9302 539.23 46.9302 536.847C46.9302 534.478 47.3215 532.663 48.1041 531.402C48.8867 530.141 50.0187 529.511 51.5 529.511ZM48.4185 536.847C48.4185 538.537 48.5723 539.86 48.8797 540.816L53.5334 531.61C53.0442 530.958 52.3664 530.633 51.5 530.633C50.5357 530.633 49.7811 531.145 49.2361 532.171C48.691 533.182 48.4185 534.741 48.4185 536.847ZM51.5 543.061C52.4782 543.061 53.2399 542.555 53.7849 541.543C54.3299 540.518 54.6024 538.953 54.6024 536.847C54.6024 535.059 54.4277 533.674 54.0784 532.69L49.4247 541.98C49.9278 542.7 50.6196 543.061 51.5 543.061Z" fill="url(#paint41_linear_122_130)" fill-opacity="0.6"/>
<path d="M90.4302 315.751C91.9255 315.751 93.0575 316.381 93.8261 317.642C94.6087 318.889 95 320.704 95 323.087C95 325.47 94.6087 327.292 93.8261 328.553C93.0575 329.814 91.9255 330.444 90.4302 330.444C88.9489 330.444 87.8169 329.814 87.0343 328.553C86.2517 327.292 85.8604 325.47 85.8604 323.087C85.8604 320.718 86.2517 318.903 87.0343 317.642C87.8169 316.381 88.9489 315.751 90.4302 315.751ZM87.3487 323.087C87.3487 324.777 87.5024 326.101 87.8099 327.057L92.4636 317.85C91.9744 317.199 91.2966 316.873 90.4302 316.873C89.4659 316.873 88.7113 317.386 88.1663 318.411C87.6212 319.423 87.3487 320.981 87.3487 323.087ZM90.4302 329.301C91.4084 329.301 92.1701 328.795 92.7151 327.784C93.2601 326.759 93.5326 325.193 93.5326 323.087C93.5326 321.3 93.3579 319.914 93.0086 318.931L88.3549 328.22C88.858 328.941 89.5498 329.301 90.4302 329.301Z" fill="url(#paint42_linear_122_130)" fill-opacity="0.6"/>
<path d="M91.6879 352.886H94.7694V353.987H86.7827V352.886H90.3463V341.206L86.9504 343.222L86.3635 342.287L90.556 339.71H91.6879V352.886Z" fill="url(#paint43_linear_122_130)" fill-opacity="0.6"/>
<path d="M91.6879 376.637H94.7694V377.738H86.7827V376.637H90.3463V364.957L86.9504 366.973L86.3635 366.038L90.556 363.461H91.6879V376.637Z" fill="url(#paint44_linear_122_130)" fill-opacity="0.6"/>
<path d="M90.4302 387.004C91.9255 387.004 93.0575 387.635 93.8261 388.895C94.6087 390.142 95 391.957 95 394.34C95 396.723 94.6087 398.545 93.8261 399.806C93.0575 401.067 91.9255 401.697 90.4302 401.697C88.9489 401.697 87.8169 401.067 87.0343 399.806C86.2517 398.545 85.8604 396.723 85.8604 394.34C85.8604 391.971 86.2517 390.156 87.0343 388.895C87.8169 387.635 88.9489 387.004 90.4302 387.004ZM87.3487 394.34C87.3487 396.031 87.5024 397.354 87.8099 398.31L92.4636 389.103C91.9744 388.452 91.2966 388.126 90.4302 388.126C89.4659 388.126 88.7113 388.639 88.1663 389.664C87.6212 390.676 87.3487 392.234 87.3487 394.34ZM90.4302 400.554C91.4084 400.554 92.1701 400.049 92.7151 399.037C93.2601 398.012 93.5326 396.446 93.5326 394.34C93.5326 392.553 93.3579 391.168 93.0086 390.184L88.3549 399.474C88.858 400.194 89.5498 400.554 90.4302 400.554Z" fill="url(#paint45_linear_122_130)" fill-opacity="0.6"/>
<path d="M90.4302 410.755C91.9255 410.755 93.0575 411.386 93.8261 412.646C94.6087 413.893 95 415.708 95 418.091C95 420.474 94.6087 422.296 93.8261 423.557C93.0575 424.818 91.9255 425.448 90.4302 425.448C88.9489 425.448 87.8169 424.818 87.0343 423.557C86.2517 422.296 85.8604 420.474 85.8604 418.091C85.8604 415.722 86.2517 413.907 87.0343 412.646C87.8169 411.386 88.9489 410.755 90.4302 410.755ZM87.3487 418.091C87.3487 419.782 87.5024 421.105 87.8099 422.061L92.4636 412.854C91.9744 412.203 91.2966 411.878 90.4302 411.878C89.4659 411.878 88.7113 412.39 88.1663 413.415C87.6212 414.427 87.3487 415.985 87.3487 418.091ZM90.4302 424.305C91.4084 424.305 92.1701 423.8 92.7151 422.788C93.2601 421.763 93.5326 420.197 93.5326 418.091C93.5326 416.304 93.3579 414.919 93.0086 413.935L88.3549 423.225C88.858 423.945 89.5498 424.305 90.4302 424.305Z" fill="url(#paint46_linear_122_130)" fill-opacity="0.6"/>
<g opacity="0.6">
<path d="M918.93 -8C920.356 -8 921.436 -7.39504 922.17 -6.18512C922.916 -4.9885 923.29 -3.24675 923.29 -0.959873C923.29 1.32701 922.916 3.0754 922.17 4.28532C921.436 5.49524 920.356 6.1002 918.93 6.1002C917.517 6.1002 916.437 5.49524 915.69 4.28532C914.943 3.0754 914.57 1.32701 914.57 -0.959873C914.57 -3.23346 914.943 -4.97521 915.69 -6.18512C916.437 -7.39504 917.517 -8 918.93 -8ZM915.99 -0.959873C915.99 0.662215 916.137 1.93196 916.43 2.84937L920.87 -5.98569C920.403 -6.61059 919.756 -6.92304 918.93 -6.92304C918.01 -6.92304 917.29 -6.4311 916.77 -5.44721C916.25 -4.47661 915.99 -2.98083 915.99 -0.959873ZM918.93 5.00329C919.863 5.00329 920.59 4.518 921.11 3.5474C921.63 2.56351 921.89 1.06109 921.89 -0.959873C921.89 -2.67503 921.723 -4.00461 921.39 -4.94861L916.95 3.96622C917.43 4.6576 918.09 5.00329 918.93 5.00329Z" fill="url(#paint47_linear_122_130)"/>
<path d="M920.13 27.6365H923.07V28.6936H915.45V27.6365H918.85V16.4282L915.61 18.3627L915.05 17.4653L919.05 14.9922H920.13V27.6365Z" fill="url(#paint48_linear_122_130)"/>
<path d="M918.93 37.5856C920.356 37.5856 921.436 38.1906 922.17 39.4005C922.916 40.5971 923.29 42.3389 923.29 44.6257C923.29 46.9126 922.916 48.661 922.17 49.8709C921.436 51.0808 920.356 51.6858 918.93 51.6858C917.517 51.6858 916.437 51.0808 915.69 49.8709C914.943 48.661 914.57 46.9126 914.57 44.6257C914.57 42.3521 914.943 40.6104 915.69 39.4005C916.437 38.1906 917.517 37.5856 918.93 37.5856ZM915.99 44.6257C915.99 46.2478 916.137 47.5176 916.43 48.435L920.87 39.5999C920.403 38.975 919.756 38.6626 918.93 38.6626C918.01 38.6626 917.29 39.1545 916.77 40.1384C916.25 41.109 915.99 42.6048 915.99 44.6257ZM918.93 50.5889C919.863 50.5889 920.59 50.1036 921.11 49.133C921.63 48.1491 921.89 46.6467 921.89 44.6257C921.89 42.9106 921.723 41.581 921.39 40.637L916.95 49.5518C917.43 50.2432 918.09 50.5889 918.93 50.5889Z" fill="url(#paint49_linear_122_130)"/>
<path d="M920.13 73.2221H923.07V74.2792H915.45V73.2221H918.85V62.0138L915.61 63.9483L915.05 63.0509L919.05 60.5778H920.13V73.2221Z" fill="url(#paint50_linear_122_130)"/>
<path d="M920.13 96.015H923.07V97.072H915.45V96.015H918.85V84.8066L915.61 86.7411L915.05 85.8437L919.05 83.3706H920.13V96.015Z" fill="url(#paint51_linear_122_130)"/>
<path d="M918.93 105.964C920.356 105.964 921.436 106.569 922.17 107.779C922.916 108.976 923.29 110.717 923.29 113.004C923.29 115.291 922.916 117.039 922.17 118.249C921.436 119.459 920.356 120.064 918.93 120.064C917.517 120.064 916.437 119.459 915.69 118.249C914.943 117.039 914.57 115.291 914.57 113.004C914.57 110.731 914.943 108.989 915.69 107.779C916.437 106.569 917.517 105.964 918.93 105.964ZM915.99 113.004C915.99 114.626 916.137 115.896 916.43 116.813L920.87 107.978C920.403 107.353 919.756 107.041 918.93 107.041C918.01 107.041 917.29 107.533 916.77 108.517C916.25 109.487 915.99 110.983 915.99 113.004ZM918.93 118.967C919.863 118.967 920.59 118.482 921.11 117.511C921.63 116.528 921.89 115.025 921.89 113.004C921.89 111.289 921.723 109.959 921.39 109.015L916.95 117.93C917.43 118.622 918.09 118.967 918.93 118.967Z" fill="url(#paint52_linear_122_130)"/>
<path d="M920.13 141.601H923.07V142.658H915.45V141.601H918.85V130.392L915.61 132.327L915.05 131.429L919.05 128.956H920.13V141.601Z" fill="url(#paint53_linear_122_130)"/>
<path d="M918.93 151.55C920.356 151.55 921.436 152.155 922.17 153.365C922.916 154.561 923.29 156.303 923.29 158.59C923.29 160.877 922.916 162.625 922.17 163.835C921.436 165.045 920.356 165.65 918.93 165.65C917.517 165.65 916.437 165.045 915.69 163.835C914.943 162.625 914.57 160.877 914.57 158.59C914.57 156.316 914.943 154.574 915.69 153.365C916.437 152.155 917.517 151.55 918.93 151.55ZM915.99 158.59C915.99 160.212 916.137 161.482 916.43 162.399L920.87 153.564C920.403 152.939 919.756 152.627 918.93 152.627C918.01 152.627 917.29 153.119 916.77 154.102C916.25 155.073 915.99 156.569 915.99 158.59ZM918.93 164.553C919.863 164.553 920.59 164.068 921.11 163.097C921.63 162.113 921.89 160.611 921.89 158.59C921.89 156.875 921.723 155.545 921.39 154.601L916.95 163.516C917.43 164.207 918.09 164.553 918.93 164.553Z" fill="url(#paint54_linear_122_130)"/>
<path d="M918.93 174.342C920.356 174.342 921.436 174.947 922.17 176.157C922.916 177.354 923.29 179.096 923.29 181.383C923.29 183.669 922.916 185.418 922.17 186.628C921.436 187.838 920.356 188.443 918.93 188.443C917.517 188.443 916.437 187.838 915.69 186.628C914.943 185.418 914.57 183.669 914.57 181.383C914.57 179.109 914.943 177.367 915.69 176.157C916.437 174.947 917.517 174.342 918.93 174.342ZM915.99 181.383C915.99 183.005 916.137 184.274 916.43 185.192L920.87 176.357C920.403 175.732 919.756 175.419 918.93 175.419C918.01 175.419 917.29 175.911 916.77 176.895C916.25 177.866 915.99 179.362 915.99 181.383ZM918.93 187.346C919.863 187.346 920.59 186.86 921.11 185.89C921.63 184.906 921.89 183.404 921.89 181.383C921.89 179.667 921.723 178.338 921.39 177.394L916.95 186.309C917.43 187 918.09 187.346 918.93 187.346Z" fill="url(#paint55_linear_122_130)"/>
<path d="M920.13 209.979H923.07V211.036H915.45V209.979H918.85V198.771L915.61 200.705L915.05 199.808L919.05 197.335H920.13V209.979Z" fill="url(#paint56_linear_122_130)"/>
<path d="M918.93 219.928C920.356 219.928 921.436 220.533 922.17 221.743C922.916 222.94 923.29 224.681 923.29 226.968C923.29 229.255 922.916 231.003 922.17 232.213C921.436 233.423 920.356 234.028 918.93 234.028C917.517 234.028 916.437 233.423 915.69 232.213C914.943 231.003 914.57 229.255 914.57 226.968C914.57 224.695 914.943 222.953 915.69 221.743C916.437 220.533 917.517 219.928 918.93 219.928ZM915.99 226.968C915.99 228.59 916.137 229.86 916.43 230.777L920.87 221.942C920.403 221.317 919.756 221.005 918.93 221.005C918.01 221.005 917.29 221.497 916.77 222.481C916.25 223.451 915.99 224.947 915.99 226.968ZM918.93 232.931C919.863 232.931 920.59 232.446 921.11 231.475C921.63 230.492 921.89 228.989 921.89 226.968C921.89 225.253 921.723 223.923 921.39 222.979L916.95 231.894C917.43 232.586 918.09 232.931 918.93 232.931Z" fill="url(#paint57_linear_122_130)"/>
<path d="M920.13 255.565H923.07V256.622H915.45V255.565H918.85V244.356L915.61 246.291L915.05 245.393L919.05 242.92H920.13V255.565Z" fill="url(#paint58_linear_122_130)"/>
<path d="M920.13 278.357H923.07V279.414H915.45V278.357H918.85V267.149L915.61 269.084L915.05 268.186L919.05 265.713H920.13V278.357Z" fill="url(#paint59_linear_122_130)"/>
<path d="M956.07 37.5856C957.497 37.5856 958.577 38.1906 959.31 39.4005C960.057 40.5971 960.43 42.3389 960.43 44.6257C960.43 46.9126 960.057 48.661 959.31 49.8709C958.577 51.0808 957.497 51.6858 956.07 51.6858C954.657 51.6858 953.577 51.0808 952.83 49.8709C952.084 48.661 951.71 46.9126 951.71 44.6257C951.71 42.3521 952.084 40.6104 952.83 39.4005C953.577 38.1906 954.657 37.5856 956.07 37.5856ZM953.13 44.6257C953.13 46.2478 953.277 47.5176 953.57 48.435L958.01 39.5999C957.543 38.975 956.897 38.6626 956.07 38.6626C955.15 38.6626 954.43 39.1545 953.91 40.1384C953.39 41.109 953.13 42.6048 953.13 44.6257ZM956.07 50.5889C957.003 50.5889 957.73 50.1036 958.25 49.133C958.77 48.1491 959.03 46.6467 959.03 44.6257C959.03 42.9106 958.863 41.581 958.53 40.637L954.09 49.5518C954.57 50.2432 955.23 50.5889 956.07 50.5889Z" fill="url(#paint60_linear_122_130)"/>
<path d="M957.27 73.2221H960.21V74.2792H952.59V73.2221H955.99V62.0138L952.75 63.9483L952.19 63.0509L956.19 60.5778H957.27V73.2221Z" fill="url(#paint61_linear_122_130)"/>
<path d="M956.07 83.1712C957.497 83.1712 958.577 83.7762 959.31 84.9861C960.057 86.1827 960.43 87.9245 960.43 90.2113C960.43 92.4982 960.057 94.2466 959.31 95.4565C958.577 96.6665 957.497 97.2714 956.07 97.2714C954.657 97.2714 953.577 96.6665 952.83 95.4565C952.084 94.2466 951.71 92.4982 951.71 90.2113C951.71 87.9378 952.084 86.196 952.83 84.9861C953.577 83.7762 954.657 83.1712 956.07 83.1712ZM953.13 90.2113C953.13 91.8334 953.277 93.1032 953.57 94.0206L958.01 85.1855C957.543 84.5606 956.897 84.2482 956.07 84.2482C955.15 84.2482 954.43 84.7401 953.91 85.724C953.39 86.6946 953.13 88.1904 953.13 90.2113ZM956.07 96.1745C957.003 96.1745 957.73 95.6892 958.25 94.7186C958.77 93.7347 959.03 92.2323 959.03 90.2113C959.03 88.4962 958.863 87.1666 958.53 86.2226L954.09 95.1374C954.57 95.8288 955.23 96.1745 956.07 96.1745Z" fill="url(#paint62_linear_122_130)"/>
<path d="M956.07 105.964C957.497 105.964 958.577 106.569 959.31 107.779C960.057 108.976 960.43 110.717 960.43 113.004C960.43 115.291 960.057 117.039 959.31 118.249C958.577 119.459 957.497 120.064 956.07 120.064C954.657 120.064 953.577 119.459 952.83 118.249C952.084 117.039 951.71 115.291 951.71 113.004C951.71 110.731 952.084 108.989 952.83 107.779C953.577 106.569 954.657 105.964 956.07 105.964ZM953.13 113.004C953.13 114.626 953.277 115.896 953.57 116.813L958.01 107.978C957.543 107.353 956.897 107.041 956.07 107.041C955.15 107.041 954.43 107.533 953.91 108.517C953.39 109.487 953.13 110.983 953.13 113.004ZM956.07 118.967C957.003 118.967 957.73 118.482 958.25 117.511C958.77 116.528 959.03 115.025 959.03 113.004C959.03 111.289 958.863 109.959 958.53 109.015L954.09 117.93C954.57 118.622 955.23 118.967 956.07 118.967Z" fill="url(#paint63_linear_122_130)"/>
<path d="M957.27 141.601H960.21V142.658H952.59V141.601H955.99V130.392L952.75 132.327L952.19 131.429L956.19 128.956H957.27V141.601Z" fill="url(#paint64_linear_122_130)"/>
<path d="M956.07 151.55C957.497 151.55 958.577 152.155 959.31 153.365C960.057 154.561 960.43 156.303 960.43 158.59C960.43 160.877 960.057 162.625 959.31 163.835C958.577 165.045 957.497 165.65 956.07 165.65C954.657 165.65 953.577 165.045 952.83 163.835C952.084 162.625 951.71 160.877 951.71 158.59C951.71 156.316 952.084 154.574 952.83 153.365C953.577 152.155 954.657 151.55 956.07 151.55ZM953.13 158.59C953.13 160.212 953.277 161.482 953.57 162.399L958.01 153.564C957.543 152.939 956.897 152.627 956.07 152.627C955.15 152.627 954.43 153.119 953.91 154.102C953.39 155.073 953.13 156.569 953.13 158.59ZM956.07 164.553C957.003 164.553 957.73 164.068 958.25 163.097C958.77 162.113 959.03 160.611 959.03 158.59C959.03 156.875 958.863 155.545 958.53 154.601L954.09 163.516C954.57 164.207 955.23 164.553 956.07 164.553Z" fill="url(#paint65_linear_122_130)"/>
<path d="M957.27 187.186H960.21V188.243H952.59V187.186H955.99V175.978L952.75 177.912L952.19 177.015L956.19 174.542H957.27V187.186Z" fill="url(#paint66_linear_122_130)"/>
<path d="M956.07 197.135C957.497 197.135 958.577 197.74 959.31 198.95C960.057 200.147 960.43 201.888 960.43 204.175C960.43 206.462 960.057 208.211 959.31 209.421C958.577 210.63 957.497 211.235 956.07 211.235C954.657 211.235 953.577 210.63 952.83 209.421C952.084 208.211 951.71 206.462 951.71 204.175C951.71 201.902 952.084 200.16 952.83 198.95C953.577 197.74 954.657 197.135 956.07 197.135ZM953.13 204.175C953.13 205.797 953.277 207.067 953.57 207.985L958.01 199.15C957.543 198.525 956.897 198.212 956.07 198.212C955.15 198.212 954.43 198.704 953.91 199.688C953.39 200.659 953.13 202.154 953.13 204.175ZM956.07 210.139C957.003 210.139 957.73 209.653 958.25 208.683C958.77 207.699 959.03 206.196 959.03 204.175C959.03 202.46 958.863 201.131 958.53 200.187L954.09 209.101C954.57 209.793 955.23 210.139 956.07 210.139Z" fill="url(#paint67_linear_122_130)"/>
<path d="M956.07 219.928C957.497 219.928 958.577 220.533 959.31 221.743C960.057 222.94 960.43 224.681 960.43 226.968C960.43 229.255 960.057 231.003 959.31 232.213C958.577 233.423 957.497 234.028 956.07 234.028C954.657 234.028 953.577 233.423 952.83 232.213C952.084 231.003 951.71 229.255 951.71 226.968C951.71 224.695 952.084 222.953 952.83 221.743C953.577 220.533 954.657 219.928 956.07 219.928ZM953.13 226.968C953.13 228.59 953.277 229.86 953.57 230.777L958.01 221.942C957.543 221.317 956.897 221.005 956.07 221.005C955.15 221.005 954.43 221.497 953.91 222.481C953.39 223.451 953.13 224.947 953.13 226.968ZM956.07 232.931C957.003 232.931 957.73 232.446 958.25 231.475C958.77 230.492 959.03 228.989 959.03 226.968C959.03 225.253 958.863 223.923 958.53 222.979L954.09 231.894C954.57 232.586 955.23 232.931 956.07 232.931Z" fill="url(#paint68_linear_122_130)"/>
<path d="M957.27 255.565H960.21V256.622H952.59V255.565H955.99V244.356L952.75 246.291L952.19 245.393L956.19 242.92H957.27V255.565Z" fill="url(#paint69_linear_122_130)"/>
<path d="M956.07 265.514C957.497 265.514 958.577 266.119 959.31 267.329C960.057 268.525 960.43 270.267 960.43 272.554C960.43 274.841 960.057 276.589 959.31 277.799C958.577 279.009 957.497 279.614 956.07 279.614C954.657 279.614 953.577 279.009 952.83 277.799C952.084 276.589 951.71 274.841 951.71 272.554C951.71 270.28 952.084 268.538 952.83 267.329C953.577 266.119 954.657 265.514 956.07 265.514ZM953.13 272.554C953.13 274.176 953.277 275.446 953.57 276.363L958.01 267.528C957.543 266.903 956.897 266.591 956.07 266.591C955.15 266.591 954.43 267.083 953.91 268.066C953.39 269.037 953.13 270.533 953.13 272.554ZM956.07 278.517C957.003 278.517 957.73 278.032 958.25 277.061C958.77 276.077 959.03 274.575 959.03 272.554C959.03 270.839 958.863 269.509 958.53 268.565L954.09 277.48C954.57 278.171 955.23 278.517 956.07 278.517Z" fill="url(#paint70_linear_122_130)"/>
<path d="M957.27 301.15H960.21V302.207H952.59V301.15H955.99V289.942L952.75 291.876L952.19 290.979L956.19 288.506H957.27V301.15Z" fill="url(#paint71_linear_122_130)"/>
<path d="M957.27 323.943H960.21V325H952.59V323.943H955.99V312.735L952.75 314.669L952.19 313.772L956.19 311.299H957.27V323.943Z" fill="url(#paint72_linear_122_130)"/>
<path d="M900.36 60.3784C901.786 60.3784 902.866 60.9834 903.599 62.1933C904.346 63.3899 904.719 65.1317 904.719 67.4185C904.719 69.7054 904.346 71.4538 903.599 72.6637C902.866 73.8736 901.786 74.4786 900.36 74.4786C898.946 74.4786 897.867 73.8736 897.12 72.6637C896.373 71.4538 896 69.7054 896 67.4185C896 65.145 896.373 63.4032 897.12 62.1933C897.867 60.9834 898.946 60.3784 900.36 60.3784ZM897.42 67.4185C897.42 69.0406 897.567 70.3104 897.86 71.2278L902.3 62.3927C901.833 61.7678 901.186 61.4554 900.36 61.4554C899.44 61.4554 898.72 61.9473 898.2 62.9312C897.68 63.9018 897.42 65.3976 897.42 67.4185ZM900.36 73.3817C901.293 73.3817 902.02 72.8964 902.54 71.9258C903.06 70.9419 903.319 69.4395 903.319 67.4185C903.319 65.7034 903.153 64.3738 902.82 63.4298L898.38 72.3446C898.86 73.036 899.52 73.3817 900.36 73.3817Z" fill="url(#paint73_linear_122_130)"/>
<path d="M900.36 83.1712C901.786 83.1712 902.866 83.7762 903.599 84.9861C904.346 86.1827 904.719 87.9245 904.719 90.2113C904.719 92.4982 904.346 94.2466 903.599 95.4565C902.866 96.6665 901.786 97.2714 900.36 97.2714C898.946 97.2714 897.867 96.6665 897.12 95.4565C896.373 94.2466 896 92.4982 896 90.2113C896 87.9378 896.373 86.196 897.12 84.9861C897.867 83.7762 898.946 83.1712 900.36 83.1712ZM897.42 90.2113C897.42 91.8334 897.567 93.1032 897.86 94.0206L902.3 85.1855C901.833 84.5606 901.186 84.2482 900.36 84.2482C899.44 84.2482 898.72 84.7401 898.2 85.724C897.68 86.6946 897.42 88.1904 897.42 90.2113ZM900.36 96.1745C901.293 96.1745 902.02 95.6892 902.54 94.7186C903.06 93.7347 903.319 92.2323 903.319 90.2113C903.319 88.4962 903.153 87.1666 902.82 86.2226L898.38 95.1374C898.86 95.8288 899.52 96.1745 900.36 96.1745Z" fill="url(#paint74_linear_122_130)"/>
<path d="M901.56 118.808H904.499V119.865H896.88V118.808H900.28V107.599L897.04 109.534L896.48 108.636L900.48 106.163H901.56V118.808Z" fill="url(#paint75_linear_122_130)"/>
<path d="M900.36 128.757C901.786 128.757 902.866 129.362 903.599 130.572C904.346 131.768 904.719 133.51 904.719 135.797C904.719 138.084 904.346 139.832 903.599 141.042C902.866 142.252 901.786 142.857 900.36 142.857C898.946 142.857 897.867 142.252 897.12 141.042C896.373 139.832 896 138.084 896 135.797C896 133.523 896.373 131.782 897.12 130.572C897.867 129.362 898.946 128.757 900.36 128.757ZM897.42 135.797C897.42 137.419 897.567 138.689 897.86 139.606L902.3 130.771C901.833 130.146 901.186 129.834 900.36 129.834C899.44 129.834 898.72 130.326 898.2 131.31C897.68 132.28 897.42 133.776 897.42 135.797ZM900.36 141.76C901.293 141.76 902.02 141.275 902.54 140.304C903.06 139.32 903.319 137.818 903.319 135.797C903.319 134.082 903.153 132.752 902.82 131.808L898.38 140.723C898.86 141.414 899.52 141.76 900.36 141.76Z" fill="url(#paint76_linear_122_130)"/>
<path d="M901.56 164.393H904.499V165.45H896.88V164.393H900.28V153.185L897.04 155.12L896.48 154.222L900.48 151.749H901.56V164.393Z" fill="url(#paint77_linear_122_130)"/>
<path d="M901.56 187.186H904.499V188.243H896.88V187.186H900.28V175.978L897.04 177.912L896.48 177.015L900.48 174.542H901.56V187.186Z" fill="url(#paint78_linear_122_130)"/>
<path d="M938.7 27.6365H941.64V28.6936H934.02V27.6365H937.42V16.4282L934.18 18.3627L933.62 17.4653L937.62 14.9922H938.7V27.6365Z" fill="url(#paint79_linear_122_130)"/>
<path d="M937.5 37.5856C938.927 37.5856 940.006 38.1906 940.74 39.4005C941.486 40.5971 941.86 42.3389 941.86 44.6257C941.86 46.9126 941.486 48.661 940.74 49.8709C940.006 51.0808 938.927 51.6858 937.5 51.6858C936.087 51.6858 935.007 51.0808 934.26 49.8709C933.514 48.661 933.14 46.9126 933.14 44.6257C933.14 42.3521 933.514 40.6104 934.26 39.4005C935.007 38.1906 936.087 37.5856 937.5 37.5856ZM934.56 44.6257C934.56 46.2478 934.707 47.5176 935 48.435L939.44 39.5999C938.973 38.975 938.327 38.6626 937.5 38.6626C936.58 38.6626 935.86 39.1545 935.34 40.1384C934.82 41.109 934.56 42.6048 934.56 44.6257ZM937.5 50.5889C938.433 50.5889 939.16 50.1036 939.68 49.133C940.2 48.1491 940.46 46.6467 940.46 44.6257C940.46 42.9106 940.293 41.581 939.96 40.637L935.52 49.5518C936 50.2432 936.66 50.5889 937.5 50.5889Z" fill="url(#paint80_linear_122_130)"/>
<path d="M938.7 73.2221H941.64V74.2792H934.02V73.2221H937.42V62.0138L934.18 63.9483L933.62 63.0509L937.62 60.5778H938.7V73.2221Z" fill="url(#paint81_linear_122_130)"/>
<path d="M938.7 96.015H941.64V97.072H934.02V96.015H937.42V84.8066L934.18 86.7411L933.62 85.8437L937.62 83.3706H938.7V96.015Z" fill="url(#paint82_linear_122_130)"/>
<path d="M937.5 105.964C938.927 105.964 940.006 106.569 940.74 107.779C941.486 108.976 941.86 110.717 941.86 113.004C941.86 115.291 941.486 117.039 940.74 118.249C940.006 119.459 938.927 120.064 937.5 120.064C936.087 120.064 935.007 119.459 934.26 118.249C933.514 117.039 933.14 115.291 933.14 113.004C933.14 110.731 933.514 108.989 934.26 107.779C935.007 106.569 936.087 105.964 937.5 105.964ZM934.56 113.004C934.56 114.626 934.707 115.896 935 116.813L939.44 107.978C938.973 107.353 938.327 107.041 937.5 107.041C936.58 107.041 935.86 107.533 935.34 108.517C934.82 109.487 934.56 110.983 934.56 113.004ZM937.5 118.967C938.433 118.967 939.16 118.482 939.68 117.511C940.2 116.528 940.46 115.025 940.46 113.004C940.46 111.289 940.293 109.959 939.96 109.015L935.52 117.93C936 118.622 936.66 118.967 937.5 118.967Z" fill="url(#paint83_linear_122_130)"/>
<path d="M938.7 141.601H941.64V142.658H934.02V141.601H937.42V130.392L934.18 132.327L933.62 131.429L937.62 128.956H938.7V141.601Z" fill="url(#paint84_linear_122_130)"/>
<path d="M938.7 164.393H941.64V165.45H934.02V164.393H937.42V153.185L934.18 155.12L933.62 154.222L937.62 151.749H938.7V164.393Z" fill="url(#paint85_linear_122_130)"/>
<path d="M937.5 174.342C938.927 174.342 940.006 174.947 940.74 176.157C941.486 177.354 941.86 179.096 941.86 181.383C941.86 183.669 941.486 185.418 940.74 186.628C940.006 187.838 938.927 188.443 937.5 188.443C936.087 188.443 935.007 187.838 934.26 186.628C933.514 185.418 933.14 183.669 933.14 181.383C933.14 179.109 933.514 177.367 934.26 176.157C935.007 174.947 936.087 174.342 937.5 174.342ZM934.56 181.383C934.56 183.005 934.707 184.274 935 185.192L939.44 176.357C938.973 175.732 938.327 175.419 937.5 175.419C936.58 175.419 935.86 175.911 935.34 176.895C934.82 177.866 934.56 179.362 934.56 181.383ZM937.5 187.346C938.433 187.346 939.16 186.86 939.68 185.89C940.2 184.906 940.46 183.404 940.46 181.383C940.46 179.667 940.293 178.338 939.96 177.394L935.52 186.309C936 187 936.66 187.346 937.5 187.346Z" fill="url(#paint86_linear_122_130)"/>
<path d="M938.7 209.979H941.64V211.036H934.02V209.979H937.42V198.771L934.18 200.705L933.62 199.808L937.62 197.335H938.7V209.979Z" fill="url(#paint87_linear_122_130)"/>
<path d="M937.5 219.928C938.927 219.928 940.006 220.533 940.74 221.743C941.486 222.94 941.86 224.681 941.86 226.968C941.86 229.255 941.486 231.003 940.74 232.213C940.006 233.423 938.927 234.028 937.5 234.028C936.087 234.028 935.007 233.423 934.26 232.213C933.514 231.003 933.14 229.255 933.14 226.968C933.14 224.695 933.514 222.953 934.26 221.743C935.007 220.533 936.087 219.928 937.5 219.928ZM934.56 226.968C934.56 228.59 934.707 229.86 935 230.777L939.44 221.942C938.973 221.317 938.327 221.005 937.5 221.005C936.58 221.005 935.86 221.497 935.34 222.481C934.82 223.451 934.56 224.947 934.56 226.968ZM937.5 232.931C938.433 232.931 939.16 232.446 939.68 231.475C940.2 230.492 940.46 228.989 940.46 226.968C940.46 225.253 940.293 223.923 939.96 222.979L935.52 231.894C936 232.586 936.66 232.931 937.5 232.931Z" fill="url(#paint88_linear_122_130)"/>
<path d="M974.64 14.7928C976.067 14.7928 977.147 15.3978 977.88 16.6077C978.627 17.8043 979 19.546 979 21.8329C979 24.1198 978.627 25.8682 977.88 27.0781C977.147 28.288 976.067 28.893 974.64 28.893C973.227 28.893 972.147 28.288 971.401 27.0781C970.654 25.8682 970.281 24.1198 970.281 21.8329C970.281 19.5593 970.654 17.8176 971.401 16.6077C972.147 15.3978 973.227 14.7928 974.64 14.7928ZM971.701 21.8329C971.701 23.455 971.847 24.7248 972.14 25.6422L976.58 16.8071C976.114 16.1822 975.467 15.8698 974.64 15.8698C973.72 15.8698 973 16.3617 972.48 17.3456C971.96 18.3162 971.701 19.812 971.701 21.8329ZM974.64 27.7961C975.574 27.7961 976.3 27.3108 976.82 26.3402C977.34 25.3563 977.6 23.8539 977.6 21.8329C977.6 20.1178 977.433 18.7882 977.1 17.8442L972.66 26.759C973.14 27.4504 973.8 27.7961 974.64 27.7961Z" fill="url(#paint89_linear_122_130)"/>
<path d="M975.84 50.4293H978.78V51.4864H971.161V50.4293H974.56V39.221L971.321 41.1555L970.761 40.2581L974.76 37.785H975.84V50.4293Z" fill="url(#paint90_linear_122_130)"/>
<path d="M975.84 73.2221H978.78V74.2792H971.161V73.2221H974.56V62.0138L971.321 63.9483L970.761 63.0509L974.76 60.5778H975.84V73.2221Z" fill="url(#paint91_linear_122_130)"/>
<path d="M974.64 83.1712C976.067 83.1712 977.147 83.7762 977.88 84.9861C978.627 86.1827 979 87.9245 979 90.2113C979 92.4982 978.627 94.2466 977.88 95.4565C977.147 96.6665 976.067 97.2714 974.64 97.2714C973.227 97.2714 972.147 96.6665 971.401 95.4565C970.654 94.2466 970.281 92.4982 970.281 90.2113C970.281 87.9378 970.654 86.196 971.401 84.9861C972.147 83.7762 973.227 83.1712 974.64 83.1712ZM971.701 90.2113C971.701 91.8334 971.847 93.1032 972.14 94.0206L976.58 85.1855C976.114 84.5606 975.467 84.2482 974.64 84.2482C973.72 84.2482 973 84.7401 972.48 85.724C971.96 86.6946 971.701 88.1904 971.701 90.2113ZM974.64 96.1745C975.574 96.1745 976.3 95.6892 976.82 94.7186C977.34 93.7347 977.6 92.2323 977.6 90.2113C977.6 88.4962 977.433 87.1666 977.1 86.2226L972.66 95.1374C973.14 95.8288 973.8 96.1745 974.64 96.1745Z" fill="url(#paint92_linear_122_130)"/>
<path d="M974.64 105.964C976.067 105.964 977.147 106.569 977.88 107.779C978.627 108.976 979 110.717 979 113.004C979 115.291 978.627 117.039 977.88 118.249C977.147 119.459 976.067 120.064 974.64 120.064C973.227 120.064 972.147 119.459 971.401 118.249C970.654 117.039 970.281 115.291 970.281 113.004C970.281 110.731 970.654 108.989 971.401 107.779C972.147 106.569 973.227 105.964 974.64 105.964ZM971.701 113.004C971.701 114.626 971.847 115.896 972.14 116.813L976.58 107.978C976.114 107.353 975.467 107.041 974.64 107.041C973.72 107.041 973 107.533 972.48 108.517C971.96 109.487 971.701 110.983 971.701 113.004ZM974.64 118.967C975.574 118.967 976.3 118.482 976.82 117.511C977.34 116.528 977.6 115.025 977.6 113.004C977.6 111.289 977.433 109.959 977.1 109.015L972.66 117.93C973.14 118.622 973.8 118.967 974.64 118.967Z" fill="url(#paint93_linear_122_130)"/>
</g>
</g>
<defs>
<filter id="filter0_f_122_130" x="-559.19" y="-694.19" width="2141.38" height="1500.38" filterUnits="userSpaceOnUse" color-interpolation-filters="sRGB">
<feFlood flood-opacity="0" result="BackgroundImageFix"/>
<feBlend mode="normal" in="SourceGraphic" in2="BackgroundImageFix" result="shape"/>
<feGaussianBlur stdDeviation="200.095" result="effect1_foregroundBlur_122_130"/>
</filter>
<linearGradient id="paint0_linear_122_130" x1="51.5" y1="292" x2="51.5" y2="603.381" gradientUnits="userSpaceOnUse">
<stop stop-color="#F7DD43"/>
<stop offset="1" stop-color="#F7DD43" stop-opacity="0"/>
</linearGradient>
<linearGradient id="paint1_linear_122_130" x1="51.5" y1="292" x2="51.5" y2="603.381" gradientUnits="userSpaceOnUse">
<stop stop-color="#F7DD43"/>
<stop offset="1" stop-color="#F7DD43" stop-opacity="0"/>
</linearGradient>
<linearGradient id="paint2_linear_122_130" x1="51.5" y1="292" x2="51.5" y2="603.381" gradientUnits="userSpaceOnUse">
<stop stop-color="#F7DD43"/>
<stop offset="1" stop-color="#F7DD43" stop-opacity="0"/>
</linearGradient>
<linearGradient id="paint3_linear_122_130" x1="51.5" y1="292" x2="51.5" y2="603.381" gradientUnits="userSpaceOnUse">
<stop stop-color="#F7DD43"/>
<stop offset="1" stop-color="#F7DD43" stop-opacity="0"/>
</linearGradient>
<linearGradient id="paint4_linear_122_130" x1="51.5" y1="292" x2="51.5" y2="603.381" gradientUnits="userSpaceOnUse">
<stop stop-color="#F7DD43"/>
<stop offset="1" stop-color="#F7DD43" stop-opacity="0"/>
</linearGradient>
<linearGradient id="paint5_linear_122_130" x1="51.5" y1="292" x2="51.5" y2="603.381" gradientUnits="userSpaceOnUse">
<stop stop-color="#F7DD43"/>
<stop offset="1" stop-color="#F7DD43" stop-opacity="0"/>
</linearGradient>
<linearGradient id="paint6_linear_122_130" x1="51.5" y1="292" x2="51.5" y2="603.381" gradientUnits="userSpaceOnUse">
<stop stop-color="#F7DD43"/>
<stop offset="1" stop-color="#F7DD43" stop-opacity="0"/>
</linearGradient>
<linearGradient id="paint7_linear_122_130" x1="51.5" y1="292" x2="51.5" y2="603.381" gradientUnits="userSpaceOnUse">
<stop stop-color="#F7DD43"/>
<stop offset="1" stop-color="#F7DD43" stop-opacity="0"/>
</linearGradient>
<linearGradient id="paint8_linear_122_130" x1="51.5" y1="292" x2="51.5" y2="603.381" gradientUnits="userSpaceOnUse">
<stop stop-color="#F7DD43"/>
<stop offset="1" stop-color="#F7DD43" stop-opacity="0"/>
</linearGradient>
<linearGradient id="paint9_linear_122_130" x1="51.5" y1="292" x2="51.5" y2="603.381" gradientUnits="userSpaceOnUse">
<stop stop-color="#F7DD43"/>
<stop offset="1" stop-color="#F7DD43" stop-opacity="0"/>
</linearGradient>
<linearGradient id="paint10_linear_122_130" x1="51.5" y1="292" x2="51.5" y2="603.381" gradientUnits="userSpaceOnUse">
<stop stop-color="#F7DD43"/>
<stop offset="1" stop-color="#F7DD43" stop-opacity="0"/>
</linearGradient>
<linearGradient id="paint11_linear_122_130" x1="51.5" y1="292" x2="51.5" y2="603.381" gradientUnits="userSpaceOnUse">
<stop stop-color="#F7DD43"/>
<stop offset="1" stop-color="#F7DD43" stop-opacity="0"/>
</linearGradient>
<linearGradient id="paint12_linear_122_130" x1="51.5" y1="292" x2="51.5" y2="603.381" gradientUnits="userSpaceOnUse">
<stop stop-color="#F7DD43"/>
<stop offset="1" stop-color="#F7DD43" stop-opacity="0"/>
</linearGradient>
<linearGradient id="paint13_linear_122_130" x1="51.5" y1="292" x2="51.5" y2="603.381" gradientUnits="userSpaceOnUse">
<stop stop-color="#F7DD43"/>
<stop offset="1" stop-color="#F7DD43" stop-opacity="0"/>
</linearGradient>
<linearGradient id="paint14_linear_122_130" x1="51.5" y1="292" x2="51.5" y2="603.381" gradientUnits="userSpaceOnUse">
<stop stop-color="#F7DD43"/>
<stop offset="1" stop-color="#F7DD43" stop-opacity="0"/>
</linearGradient>
<linearGradient id="paint15_linear_122_130" x1="51.5" y1="292" x2="51.5" y2="603.381" gradientUnits="userSpaceOnUse">
<stop stop-color="#F7DD43"/>
<stop offset="1" stop-color="#F7DD43" stop-opacity="0"/>
</linearGradient>
<linearGradient id="paint16_linear_122_130" x1="51.5" y1="292" x2="51.5" y2="603.381" gradientUnits="userSpaceOnUse">
<stop stop-color="#F7DD43"/>
<stop offset="1" stop-color="#F7DD43" stop-opacity="0"/>
</linearGradient>
<linearGradient id="paint17_linear_122_130" x1="51.5" y1="292" x2="51.5" y2="603.381" gradientUnits="userSpaceOnUse">
<stop stop-color="#F7DD43"/>
<stop offset="1" stop-color="#F7DD43" stop-opacity="0"/>
</linearGradient>
<linearGradient id="paint18_linear_122_130" x1="51.5" y1="292" x2="51.5" y2="603.381" gradientUnits="userSpaceOnUse">
<stop stop-color="#F7DD43"/>
<stop offset="1" stop-color="#F7DD43" stop-opacity="0"/>
</linearGradient>
<linearGradient id="paint19_linear_122_130" x1="51.5" y1="292" x2="51.5" y2="603.381" gradientUnits="userSpaceOnUse">
<stop stop-color="#F7DD43"/>
<stop offset="1" stop-color="#F7DD43" stop-opacity="0"/>
</linearGradient>
<linearGradient id="paint20_linear_122_130" x1="51.5" y1="292" x2="51.5" y2="603.381" gradientUnits="userSpaceOnUse">
<stop stop-color="#F7DD43"/>
<stop offset="1" stop-color="#F7DD43" stop-opacity="0"/>
</linearGradient>
<linearGradient id="paint21_linear_122_130" x1="51.5" y1="292" x2="51.5" y2="603.381" gradientUnits="userSpaceOnUse">
<stop stop-color="#F7DD43"/>
<stop offset="1" stop-color="#F7DD43" stop-opacity="0"/>
</linearGradient>
<linearGradient id="paint22_linear_122_130" x1="51.5" y1="292" x2="51.5" y2="603.381" gradientUnits="userSpaceOnUse">
<stop stop-color="#F7DD43"/>
<stop offset="1" stop-color="#F7DD43" stop-opacity="0"/>
</linearGradient>
<linearGradient id="paint23_linear_122_130" x1="51.5" y1="292" x2="51.5" y2="603.381" gradientUnits="userSpaceOnUse">
<stop stop-color="#F7DD43"/>
<stop offset="1" stop-color="#F7DD43" stop-opacity="0"/>
</linearGradient>
<linearGradient id="paint24_linear_122_130" x1="51.5" y1="292" x2="51.5" y2="603.381" gradientUnits="userSpaceOnUse">
<stop stop-color="#F7DD43"/>
<stop offset="1" stop-color="#F7DD43" stop-opacity="0"/>
</linearGradient>
<linearGradient id="paint25_linear_122_130" x1="51.5" y1="292" x2="51.5" y2="603.381" gradientUnits="userSpaceOnUse">
<stop stop-color="#F7DD43"/>
<stop offset="1" stop-color="#F7DD43" stop-opacity="0"/>
</linearGradient>
<linearGradient id="paint26_linear_122_130" x1="51.5" y1="292" x2="51.5" y2="603.381" gradientUnits="userSpaceOnUse">
<stop stop-color="#F7DD43"/>
<stop offset="1" stop-color="#F7DD43" stop-opacity="0"/>
</linearGradient>
<linearGradient id="paint27_linear_122_130" x1="51.5" y1="292" x2="51.5" y2="603.381" gradientUnits="userSpaceOnUse">
<stop stop-color="#F7DD43"/>
<stop offset="1" stop-color="#F7DD43" stop-opacity="0"/>
</linearGradient>
<linearGradient id="paint28_linear_122_130" x1="51.5" y1="292" x2="51.5" y2="603.381" gradientUnits="userSpaceOnUse">
<stop stop-color="#F7DD43"/>
<stop offset="1" stop-color="#F7DD43" stop-opacity="0"/>
</linearGradient>
<linearGradient id="paint29_linear_122_130" x1="51.5" y1="292" x2="51.5" y2="603.381" gradientUnits="userSpaceOnUse">
<stop stop-color="#F7DD43"/>
<stop offset="1" stop-color="#F7DD43" stop-opacity="0"/>
</linearGradient>
<linearGradient id="paint30_linear_122_130" x1="51.5" y1="292" x2="51.5" y2="603.381" gradientUnits="userSpaceOnUse">
<stop stop-color="#F7DD43"/>
<stop offset="1" stop-color="#F7DD43" stop-opacity="0"/>
</linearGradient>
<linearGradient id="paint31_linear_122_130" x1="51.5" y1="292" x2="51.5" y2="603.381" gradientUnits="userSpaceOnUse">
<stop stop-color="#F7DD43"/>
<stop offset="1" stop-color="#F7DD43" stop-opacity="0"/>
</linearGradient>
<linearGradient id="paint32_linear_122_130" x1="51.5" y1="292" x2="51.5" y2="603.381" gradientUnits="userSpaceOnUse">
<stop stop-color="#F7DD43"/>
<stop offset="1" stop-color="#F7DD43" stop-opacity="0"/>
</linearGradient>
<linearGradient id="paint33_linear_122_130" x1="51.5" y1="292" x2="51.5" y2="603.381" gradientUnits="userSpaceOnUse">
<stop stop-color="#F7DD43"/>
<stop offset="1" stop-color="#F7DD43" stop-opacity="0"/>
</linearGradient>
<linearGradient id="paint34_linear_122_130" x1="51.5" y1="292" x2="51.5" y2="603.381" gradientUnits="userSpaceOnUse">
<stop stop-color="#F7DD43"/>
<stop offset="1" stop-color="#F7DD43" stop-opacity="0"/>
</linearGradient>
<linearGradient id="paint35_linear_122_130" x1="51.5" y1="292" x2="51.5" y2="603.381" gradientUnits="userSpaceOnUse">
<stop stop-color="#F7DD43"/>
<stop offset="1" stop-color="#F7DD43" stop-opacity="0"/>
</linearGradient>
<linearGradient id="paint36_linear_122_130" x1="51.5" y1="292" x2="51.5" y2="603.381" gradientUnits="userSpaceOnUse">
<stop stop-color="#F7DD43"/>
<stop offset="1" stop-color="#F7DD43" stop-opacity="0"/>
</linearGradient>
<linearGradient id="paint37_linear_122_130" x1="51.5" y1="292" x2="51.5" y2="603.381" gradientUnits="userSpaceOnUse">
<stop stop-color="#F7DD43"/>
<stop offset="1" stop-color="#F7DD43" stop-opacity="0"/>
</linearGradient>
<linearGradient id="paint38_linear_122_130" x1="51.5" y1="292" x2="51.5" y2="603.381" gradientUnits="userSpaceOnUse">
<stop stop-color="#F7DD43"/>
<stop offset="1" stop-color="#F7DD43" stop-opacity="0"/>
</linearGradient>
<linearGradient id="paint39_linear_122_130" x1="51.5" y1="292" x2="51.5" y2="603.381" gradientUnits="userSpaceOnUse">
<stop stop-color="#F7DD43"/>
<stop offset="1" stop-color="#F7DD43" stop-opacity="0"/>
</linearGradient>
<linearGradient id="paint40_linear_122_130" x1="51.5" y1="292" x2="51.5" y2="603.381" gradientUnits="userSpaceOnUse">
<stop stop-color="#F7DD43"/>
<stop offset="1" stop-color="#F7DD43" stop-opacity="0"/>
</linearGradient>
<linearGradient id="paint41_linear_122_130" x1="51.5" y1="292" x2="51.5" y2="603.381" gradientUnits="userSpaceOnUse">
<stop stop-color="#F7DD43"/>
<stop offset="1" stop-color="#F7DD43" stop-opacity="0"/>
</linearGradient>
<linearGradient id="paint42_linear_122_130" x1="51.5" y1="292" x2="51.5" y2="603.381" gradientUnits="userSpaceOnUse">
<stop stop-color="#F7DD43"/>
<stop offset="1" stop-color="#F7DD43" stop-opacity="0"/>
</linearGradient>
<linearGradient id="paint43_linear_122_130" x1="51.5" y1="292" x2="51.5" y2="603.381" gradientUnits="userSpaceOnUse">
<stop stop-color="#F7DD43"/>
<stop offset="1" stop-color="#F7DD43" stop-opacity="0"/>
</linearGradient>
<linearGradient id="paint44_linear_122_130" x1="51.5" y1="292" x2="51.5" y2="603.381" gradientUnits="userSpaceOnUse">
<stop stop-color="#F7DD43"/>
<stop offset="1" stop-color="#F7DD43" stop-opacity="0"/>
</linearGradient>
<linearGradient id="paint45_linear_122_130" x1="51.5" y1="292" x2="51.5" y2="603.381" gradientUnits="userSpaceOnUse">
<stop stop-color="#F7DD43"/>
<stop offset="1" stop-color="#F7DD43" stop-opacity="0"/>
</linearGradient>
<linearGradient id="paint46_linear_122_130" x1="51.5" y1="292" x2="51.5" y2="603.381" gradientUnits="userSpaceOnUse">
<stop stop-color="#F7DD43"/>
<stop offset="1" stop-color="#F7DD43" stop-opacity="0"/>
</linearGradient>
<linearGradient id="paint47_linear_122_130" x1="937.5" y1="-8" x2="937.5" y2="290.818" gradientUnits="userSpaceOnUse">
<stop stop-color="#F7DD43"/>
<stop offset="1" stop-color="#F7DD43" stop-opacity="0"/>
</linearGradient>
<linearGradient id="paint48_linear_122_130" x1="937.5" y1="-8" x2="937.5" y2="290.818" gradientUnits="userSpaceOnUse">
<stop stop-color="#F7DD43"/>
<stop offset="1" stop-color="#F7DD43" stop-opacity="0"/>
</linearGradient>
<linearGradient id="paint49_linear_122_130" x1="937.5" y1="-8" x2="937.5" y2="290.818" gradientUnits="userSpaceOnUse">
<stop stop-color="#F7DD43"/>
<stop offset="1" stop-color="#F7DD43" stop-opacity="0"/>
</linearGradient>
<linearGradient id="paint50_linear_122_130" x1="937.5" y1="-8" x2="937.5" y2="290.818" gradientUnits="userSpaceOnUse">
<stop stop-color="#F7DD43"/>
<stop offset="1" stop-color="#F7DD43" stop-opacity="0"/>
</linearGradient>
<linearGradient id="paint51_linear_122_130" x1="937.5" y1="-8" x2="937.5" y2="290.818" gradientUnits="userSpaceOnUse">
<stop stop-color="#F7DD43"/>
<stop offset="1" stop-color="#F7DD43" stop-opacity="0"/>
</linearGradient>
<linearGradient id="paint52_linear_122_130" x1="937.5" y1="-8" x2="937.5" y2="290.818" gradientUnits="userSpaceOnUse">
<stop stop-color="#F7DD43"/>
<stop offset="1" stop-color="#F7DD43" stop-opacity="0"/>
</linearGradient>
<linearGradient id="paint53_linear_122_130" x1="937.5" y1="-8" x2="937.5" y2="290.818" gradientUnits="userSpaceOnUse">
<stop stop-color="#F7DD43"/>
<stop offset="1" stop-color="#F7DD43" stop-opacity="0"/>
</linearGradient>
<linearGradient id="paint54_linear_122_130" x1="937.5" y1="-8" x2="937.5" y2="290.818" gradientUnits="userSpaceOnUse">
<stop stop-color="#F7DD43"/>
<stop offset="1" stop-color="#F7DD43" stop-opacity="0"/>
</linearGradient>
<linearGradient id="paint55_linear_122_130" x1="937.5" y1="-8" x2="937.5" y2="290.818" gradientUnits="userSpaceOnUse">
<stop stop-color="#F7DD43"/>
<stop offset="1" stop-color="#F7DD43" stop-opacity="0"/>
</linearGradient>
<linearGradient id="paint56_linear_122_130" x1="937.5" y1="-8" x2="937.5" y2="290.818" gradientUnits="userSpaceOnUse">
<stop stop-color="#F7DD43"/>
<stop offset="1" stop-color="#F7DD43" stop-opacity="0"/>
</linearGradient>
<linearGradient id="paint57_linear_122_130" x1="937.5" y1="-8" x2="937.5" y2="290.818" gradientUnits="userSpaceOnUse">
<stop stop-color="#F7DD43"/>
<stop offset="1" stop-color="#F7DD43" stop-opacity="0"/>
</linearGradient>
<linearGradient id="paint58_linear_122_130" x1="937.5" y1="-8" x2="937.5" y2="290.818" gradientUnits="userSpaceOnUse">
<stop stop-color="#F7DD43"/>
<stop offset="1" stop-color="#F7DD43" stop-opacity="0"/>
</linearGradient>
<linearGradient id="paint59_linear_122_130" x1="937.5" y1="-8" x2="937.5" y2="290.818" gradientUnits="userSpaceOnUse">
<stop stop-color="#F7DD43"/>
<stop offset="1" stop-color="#F7DD43" stop-opacity="0"/>
</linearGradient>
<linearGradient id="paint60_linear_122_130" x1="937.5" y1="-8" x2="937.5" y2="290.818" gradientUnits="userSpaceOnUse">
<stop stop-color="#F7DD43"/>
<stop offset="1" stop-color="#F7DD43" stop-opacity="0"/>
</linearGradient>
<linearGradient id="paint61_linear_122_130" x1="937.5" y1="-8" x2="937.5" y2="290.818" gradientUnits="userSpaceOnUse">
<stop stop-color="#F7DD43"/>
<stop offset="1" stop-color="#F7DD43" stop-opacity="0"/>
</linearGradient>
<linearGradient id="paint62_linear_122_130" x1="937.5" y1="-8" x2="937.5" y2="290.818" gradientUnits="userSpaceOnUse">
<stop stop-color="#F7DD43"/>
<stop offset="1" stop-color="#F7DD43" stop-opacity="0"/>
</linearGradient>
<linearGradient id="paint63_linear_122_130" x1="937.5" y1="-8" x2="937.5" y2="290.818" gradientUnits="userSpaceOnUse">
<stop stop-color="#F7DD43"/>
<stop offset="1" stop-color="#F7DD43" stop-opacity="0"/>
</linearGradient>
<linearGradient id="paint64_linear_122_130" x1="937.5" y1="-8" x2="937.5" y2="290.818" gradientUnits="userSpaceOnUse">
<stop stop-color="#F7DD43"/>
<stop offset="1" stop-color="#F7DD43" stop-opacity="0"/>
</linearGradient>
<linearGradient id="paint65_linear_122_130" x1="937.5" y1="-8" x2="937.5" y2="290.818" gradientUnits="userSpaceOnUse">
<stop stop-color="#F7DD43"/>
<stop offset="1" stop-color="#F7DD43" stop-opacity="0"/>
</linearGradient>
<linearGradient id="paint66_linear_122_130" x1="937.5" y1="-8" x2="937.5" y2="290.818" gradientUnits="userSpaceOnUse">
<stop stop-color="#F7DD43"/>
<stop offset="1" stop-color="#F7DD43" stop-opacity="0"/>
</linearGradient>
<linearGradient id="paint67_linear_122_130" x1="937.5" y1="-8" x2="937.5" y2="290.818" gradientUnits="userSpaceOnUse">
<stop stop-color="#F7DD43"/>
<stop offset="1" stop-color="#F7DD43" stop-opacity="0"/>
</linearGradient>
<linearGradient id="paint68_linear_122_130" x1="937.5" y1="-8" x2="937.5" y2="290.818" gradientUnits="userSpaceOnUse">
<stop stop-color="#F7DD43"/>
<stop offset="1" stop-color="#F7DD43" stop-opacity="0"/>
</linearGradient>
<linearGradient id="paint69_linear_122_130" x1="937.5" y1="-8" x2="937.5" y2="290.818" gradientUnits="userSpaceOnUse">
<stop stop-color="#F7DD43"/>
<stop offset="1" stop-color="#F7DD43" stop-opacity="0"/>
</linearGradient>
<linearGradient id="paint70_linear_122_130" x1="937.5" y1="-8" x2="937.5" y2="290.818" gradientUnits="userSpaceOnUse">
<stop stop-color="#F7DD43"/>
<stop offset="1" stop-color="#F7DD43" stop-opacity="0"/>
</linearGradient>
<linearGradient id="paint71_linear_122_130" x1="937.5" y1="-8" x2="937.5" y2="290.818" gradientUnits="userSpaceOnUse">
<stop stop-color="#F7DD43"/>
<stop offset="1" stop-color="#F7DD43" stop-opacity="0"/>
</linearGradient>
<linearGradient id="paint72_linear_122_130" x1="937.5" y1="-8" x2="937.5" y2="290.818" gradientUnits="userSpaceOnUse">
<stop stop-color="#F7DD43"/>
<stop offset="1" stop-color="#F7DD43" stop-opacity="0"/>
</linearGradient>
<linearGradient id="paint73_linear_122_130" x1="937.5" y1="-8" x2="937.5" y2="290.818" gradientUnits="userSpaceOnUse">
<stop stop-color="#F7DD43"/>
<stop offset="1" stop-color="#F7DD43" stop-opacity="0"/>
</linearGradient>
<linearGradient id="paint74_linear_122_130" x1="937.5" y1="-8" x2="937.5" y2="290.818" gradientUnits="userSpaceOnUse">
<stop stop-color="#F7DD43"/>
<stop offset="1" stop-color="#F7DD43" stop-opacity="0"/>
</linearGradient>
<linearGradient id="paint75_linear_122_130" x1="937.5" y1="-8" x2="937.5" y2="290.818" gradientUnits="userSpaceOnUse">
<stop stop-color="#F7DD43"/>
<stop offset="1" stop-color="#F7DD43" stop-opacity="0"/>
</linearGradient>
<linearGradient id="paint76_linear_122_130" x1="937.5" y1="-8" x2="937.5" y2="290.818" gradientUnits="userSpaceOnUse">
<stop stop-color="#F7DD43"/>
<stop offset="1" stop-color="#F7DD43" stop-opacity="0"/>
</linearGradient>
<linearGradient id="paint77_linear_122_130" x1="937.5" y1="-8" x2="937.5" y2="290.818" gradientUnits="userSpaceOnUse">
<stop stop-color="#F7DD43"/>
<stop offset="1" stop-color="#F7DD43" stop-opacity="0"/>
</linearGradient>
<linearGradient id="paint78_linear_122_130" x1="937.5" y1="-8" x2="937.5" y2="290.818" gradientUnits="userSpaceOnUse">
<stop stop-color="#F7DD43"/>
<stop offset="1" stop-color="#F7DD43" stop-opacity="0"/>
</linearGradient>
<linearGradient id="paint79_linear_122_130" x1="937.5" y1="-8" x2="937.5" y2="290.818" gradientUnits="userSpaceOnUse">
<stop stop-color="#F7DD43"/>
<stop offset="1" stop-color="#F7DD43" stop-opacity="0"/>
</linearGradient>
<linearGradient id="paint80_linear_122_130" x1="937.5" y1="-8" x2="937.5" y2="290.818" gradientUnits="userSpaceOnUse">
<stop stop-color="#F7DD43"/>
<stop offset="1" stop-color="#F7DD43" stop-opacity="0"/>
</linearGradient>
<linearGradient id="paint81_linear_122_130" x1="937.5" y1="-8" x2="937.5" y2="290.818" gradientUnits="userSpaceOnUse">
<stop stop-color="#F7DD43"/>
<stop offset="1" stop-color="#F7DD43" stop-opacity="0"/>
</linearGradient>
<linearGradient id="paint82_linear_122_130" x1="937.5" y1="-8" x2="937.5" y2="290.818" gradientUnits="userSpaceOnUse">
<stop stop-color="#F7DD43"/>
<stop offset="1" stop-color="#F7DD43" stop-opacity="0"/>
</linearGradient>
<linearGradient id="paint83_linear_122_130" x1="937.5" y1="-8" x2="937.5" y2="290.818" gradientUnits="userSpaceOnUse">
<stop stop-color="#F7DD43"/>
<stop offset="1" stop-color="#F7DD43" stop-opacity="0"/>
</linearGradient>
<linearGradient id="paint84_linear_122_130" x1="937.5" y1="-8" x2="937.5" y2="290.818" gradientUnits="userSpaceOnUse">
<stop stop-color="#F7DD43"/>
<stop offset="1" stop-color="#F7DD43" stop-opacity="0"/>
</linearGradient>
<linearGradient id="paint85_linear_122_130" x1="937.5" y1="-8" x2="937.5" y2="290.818" gradientUnits="userSpaceOnUse">
<stop stop-color="#F7DD43"/>
<stop offset="1" stop-color="#F7DD43" stop-opacity="0"/>
</linearGradient>
<linearGradient id="paint86_linear_122_130" x1="937.5" y1="-8" x2="937.5" y2="290.818" gradientUnits="userSpaceOnUse">
<stop stop-color="#F7DD43"/>
<stop offset="1" stop-color="#F7DD43" stop-opacity="0"/>
</linearGradient>
<linearGradient id="paint87_linear_122_130" x1="937.5" y1="-8" x2="937.5" y2="290.818" gradientUnits="userSpaceOnUse">
<stop stop-color="#F7DD43"/>
<stop offset="1" stop-color="#F7DD43" stop-opacity="0"/>
</linearGradient>
<linearGradient id="paint88_linear_122_130" x1="937.5" y1="-8" x2="937.5" y2="290.818" gradientUnits="userSpaceOnUse">
<stop stop-color="#F7DD43"/>
<stop offset="1" stop-color="#F7DD43" stop-opacity="0"/>
</linearGradient>
<linearGradient id="paint89_linear_122_130" x1="937.5" y1="-8" x2="937.5" y2="290.818" gradientUnits="userSpaceOnUse">
<stop stop-color="#F7DD43"/>
<stop offset="1" stop-color="#F7DD43" stop-opacity="0"/>
</linearGradient>
<linearGradient id="paint90_linear_122_130" x1="937.5" y1="-8" x2="937.5" y2="290.818" gradientUnits="userSpaceOnUse">
<stop stop-color="#F7DD43"/>
<stop offset="1" stop-color="#F7DD43" stop-opacity="0"/>
</linearGradient>
<linearGradient id="paint91_linear_122_130" x1="937.5" y1="-8" x2="937.5" y2="290.818" gradientUnits="userSpaceOnUse">
<stop stop-color="#F7DD43"/>
<stop offset="1" stop-color="#F7DD43" stop-opacity="0"/>
</linearGradient>
<linearGradient id="paint92_linear_122_130" x1="937.5" y1="-8" x2="937.5" y2="290.818" gradientUnits="userSpaceOnUse">
<stop stop-color="#F7DD43"/>
<stop offset="1" stop-color="#F7DD43" stop-opacity="0"/>
</linearGradient>
<linearGradient id="paint93_linear_122_130" x1="937.5" y1="-8" x2="937.5" y2="290.818" gradientUnits="userSpaceOnUse">
<stop stop-color="#F7DD43"/>
<stop offset="1" stop-color="#F7DD43" stop-opacity="0"/>
</linearGradient>
<clipPath id="clip0_122_130">
<rect width="1024" height="753" fill="white"/>
</clipPath>
</defs>
</svg>
